<mxfile host="app.diagrams.net" modified="2021-11-13T15:26:18.608Z" agent="5.0 (Windows NT 10.0; Win64; x64) AppleWebKit/537.36 (KHTML, like Gecko) Chrome/95.0.4638.69 Safari/537.36" etag="NlIJhuzsWFDKNsmnioaI" version="15.5.8" type="github">
  <diagram name="Page-1" id="efa7a0a1-bf9b-a30e-e6df-94a7791c09e9">
    <mxGraphModel dx="943" dy="644" grid="1" gridSize="10" guides="1" tooltips="1" connect="1" arrows="1" fold="1" page="1" pageScale="1" pageWidth="826" pageHeight="1169" background="none" math="0" shadow="0">
      <root>
        <mxCell id="0" />
        <mxCell id="1" parent="0" />
        <mxCell id="qegKbZxgv4PJoruQwuUI-114" value="&lt;p style=&quot;margin: 0px ; margin-top: 4px ; text-align: center ; text-decoration: underline&quot;&gt;&lt;b&gt;Product 商品&lt;/b&gt;&lt;/p&gt;&lt;hr&gt;&lt;p style=&quot;margin: 0px ; margin-left: 8px&quot;&gt;code:String&amp;nbsp; &amp;nbsp;商品编码&lt;/p&gt;&lt;p style=&quot;margin: 0px ; margin-left: 8px&quot;&gt;name:String&amp;nbsp; 名称&lt;/p&gt;&lt;p style=&quot;margin: 0px ; margin-left: 8px&quot;&gt;catalogVersion:CatalogVersion&amp;nbsp; 目录版本&lt;br&gt;&lt;/p&gt;&lt;p style=&quot;margin: 0px ; margin-left: 8px&quot;&gt;supercategories:Category&amp;nbsp; 分类&lt;br&gt;&lt;/p&gt;&lt;p style=&quot;margin: 0px ; margin-left: 8px&quot;&gt;approvalStatus:ArticleApprovalStatus&amp;nbsp; 批准状态&lt;br&gt;&lt;/p&gt;&lt;p style=&quot;margin: 0px ; margin-left: 8px&quot;&gt;europe1Prices:Collection&amp;lt;PriceRow&amp;gt; 价格&lt;br&gt;&lt;/p&gt;&lt;p style=&quot;margin: 0px ; margin-left: 8px&quot;&gt;listShow:boolean&amp;nbsp; 是否前台显示&lt;br&gt;&lt;/p&gt;&lt;p style=&quot;margin: 0px ; margin-left: 8px&quot;&gt;galleryImages:List&amp;lt;MediaContainer&amp;gt; 滚动图片&lt;br&gt;&lt;/p&gt;&lt;p style=&quot;margin: 0px ; margin-left: 8px&quot;&gt;picture:MediaModel&amp;nbsp; 主图&lt;/p&gt;&lt;p style=&quot;margin: 0px ; margin-left: 8px&quot;&gt;detailImages:List&amp;lt;Media&amp;gt;&amp;nbsp; 详细图片&lt;br&gt;&lt;/p&gt;&lt;p style=&quot;margin: 0px ; margin-left: 8px&quot;&gt;disable:boolean&amp;nbsp; 停用（询报价使用）&lt;br&gt;&lt;/p&gt;&lt;p style=&quot;margin: 0px ; margin-left: 8px&quot;&gt;&lt;br&gt;&lt;/p&gt;" style="verticalAlign=top;align=left;overflow=fill;fontSize=12;fontFamily=Helvetica;html=1;strokeColor=#003366;shadow=1;fillColor=#D4E1F5;fontColor=#003366" vertex="1" parent="1">
          <mxGeometry x="150" y="70" width="310" height="280" as="geometry" />
        </mxCell>
        <mxCell id="qegKbZxgv4PJoruQwuUI-115" value="&lt;p style=&quot;margin: 0px ; margin-top: 4px ; text-align: center ; text-decoration: underline&quot;&gt;&lt;b&gt;PriceRow 商品价格&lt;/b&gt;&lt;/p&gt;&lt;hr&gt;&lt;p style=&quot;margin: 0px ; margin-left: 8px&quot;&gt;product:Product&amp;nbsp; 商品&lt;br&gt;&lt;/p&gt;&lt;p style=&quot;margin: 0px ; margin-left: 8px&quot;&gt;productId:String&amp;nbsp; 商品编码&lt;br&gt;&lt;/p&gt;&lt;p style=&quot;margin: 0px ; margin-left: 8px&quot;&gt;user:User&amp;nbsp; 用户&lt;br&gt;&lt;/p&gt;&lt;p style=&quot;margin: 0px ; margin-left: 8px&quot;&gt;price:Double&amp;nbsp; 价格&lt;br&gt;&lt;/p&gt;&lt;p style=&quot;margin: 0px ; margin-left: 8px&quot;&gt;costPrice:Doubel 成本价（新增）&lt;/p&gt;&lt;p style=&quot;margin: 0px ; margin-left: 8px&quot;&gt;unit:Unit&amp;nbsp; 单位&lt;br&gt;&lt;/p&gt;&lt;p style=&quot;margin: 0px ; margin-left: 8px&quot;&gt;currency:Currency 币种&lt;br&gt;&lt;/p&gt;&lt;p style=&quot;margin: 0px ; margin-left: 8px&quot;&gt;catalogVersion:CatalogVersion 目录版本&lt;/p&gt;&lt;p style=&quot;margin: 0px ; margin-left: 8px&quot;&gt;startTIme:Date 开始时间&lt;/p&gt;&lt;p style=&quot;margin: 0px ; margin-left: 8px&quot;&gt;endTime:Date&amp;nbsp; 结束时间&lt;/p&gt;" style="verticalAlign=top;align=left;overflow=fill;fontSize=12;fontFamily=Helvetica;html=1;strokeColor=#003366;shadow=1;fillColor=#D4E1F5;fontColor=#003366" vertex="1" parent="1">
          <mxGeometry x="600" y="40" width="240" height="180" as="geometry" />
        </mxCell>
        <mxCell id="qegKbZxgv4PJoruQwuUI-116" value="&lt;p style=&quot;margin: 0px ; margin-top: 4px ; text-align: center ; text-decoration: underline&quot;&gt;&lt;b&gt;StockLevel 商品价格&lt;/b&gt;&lt;/p&gt;&lt;hr&gt;&lt;p style=&quot;margin: 0px ; margin-left: 8px&quot;&gt;product:Product 商品&lt;br&gt;&lt;/p&gt;&lt;p style=&quot;margin: 0px ; margin-left: 8px&quot;&gt;productCode:String 商品编码&lt;/p&gt;&lt;p style=&quot;margin: 0px ; margin-left: 8px&quot;&gt;available:int&amp;nbsp; 可用数量&lt;br&gt;&lt;/p&gt;&lt;p style=&quot;margin: 0px ; margin-left: 8px&quot;&gt;reserved:int&amp;nbsp; 保有量&lt;br&gt;&lt;/p&gt;&lt;p style=&quot;margin: 0px ; margin-left: 8px&quot;&gt;warehouse:Warehouse&amp;nbsp; 仓库&lt;br&gt;&lt;/p&gt;" style="verticalAlign=top;align=left;overflow=fill;fontSize=12;fontFamily=Helvetica;html=1;strokeColor=#003366;shadow=1;fillColor=#D4E1F5;fontColor=#003366" vertex="1" parent="1">
          <mxGeometry x="610" y="280" width="220" height="120" as="geometry" />
        </mxCell>
        <mxCell id="qegKbZxgv4PJoruQwuUI-117" value="" style="endArrow=open;endSize=12;startArrow=diamondThin;startSize=14;startFill=0;edgeStyle=orthogonalEdgeStyle;entryX=1.001;entryY=0.437;entryDx=0;entryDy=0;entryPerimeter=0;exitX=0;exitY=0.5;exitDx=0;exitDy=0;" edge="1" parent="1" source="qegKbZxgv4PJoruQwuUI-115" target="qegKbZxgv4PJoruQwuUI-114">
          <mxGeometry x="549.3599999999999" y="-280" as="geometry">
            <mxPoint x="780" y="-155.00000000000045" as="sourcePoint" />
            <mxPoint x="781.0800000000004" y="-338.0399999999993" as="targetPoint" />
          </mxGeometry>
        </mxCell>
        <mxCell id="qegKbZxgv4PJoruQwuUI-118" value="0..n" style="resizable=0;align=left;verticalAlign=top;labelBackgroundColor=#ffffff;fontSize=10;strokeColor=#003366;shadow=1;fillColor=#D4E1F5;fontColor=#003366" connectable="0" vertex="1" parent="qegKbZxgv4PJoruQwuUI-117">
          <mxGeometry x="-1" relative="1" as="geometry">
            <mxPoint x="-40" y="-29" as="offset" />
          </mxGeometry>
        </mxCell>
        <mxCell id="qegKbZxgv4PJoruQwuUI-119" value="1" style="resizable=0;align=right;verticalAlign=top;labelBackgroundColor=#ffffff;fontSize=10;strokeColor=#003366;shadow=1;fillColor=#D4E1F5;fontColor=#003366" connectable="0" vertex="1" parent="qegKbZxgv4PJoruQwuUI-117">
          <mxGeometry x="1" relative="1" as="geometry">
            <mxPoint x="20" y="-32" as="offset" />
          </mxGeometry>
        </mxCell>
        <mxCell id="qegKbZxgv4PJoruQwuUI-120" value="" style="endArrow=open;endSize=12;startArrow=diamondThin;startSize=14;startFill=0;edgeStyle=orthogonalEdgeStyle;entryX=1;entryY=0.75;entryDx=0;entryDy=0;exitX=0;exitY=0.5;exitDx=0;exitDy=0;" edge="1" parent="1" source="qegKbZxgv4PJoruQwuUI-116" target="qegKbZxgv4PJoruQwuUI-114">
          <mxGeometry x="559.3599999999999" y="-270" as="geometry">
            <mxPoint x="690" y="189" as="sourcePoint" />
            <mxPoint x="470.30999999999995" y="202.3599999999999" as="targetPoint" />
          </mxGeometry>
        </mxCell>
        <mxCell id="qegKbZxgv4PJoruQwuUI-121" value="0..n" style="resizable=0;align=left;verticalAlign=top;labelBackgroundColor=#ffffff;fontSize=10;strokeColor=#003366;shadow=1;fillColor=#D4E1F5;fontColor=#003366" connectable="0" vertex="1" parent="qegKbZxgv4PJoruQwuUI-120">
          <mxGeometry x="-1" relative="1" as="geometry">
            <mxPoint x="-40" y="-29" as="offset" />
          </mxGeometry>
        </mxCell>
        <mxCell id="qegKbZxgv4PJoruQwuUI-122" value="1" style="resizable=0;align=right;verticalAlign=top;labelBackgroundColor=#ffffff;fontSize=10;strokeColor=#003366;shadow=1;fillColor=#D4E1F5;fontColor=#003366" connectable="0" vertex="1" parent="qegKbZxgv4PJoruQwuUI-120">
          <mxGeometry x="1" relative="1" as="geometry">
            <mxPoint x="20" y="-32" as="offset" />
          </mxGeometry>
        </mxCell>
        <mxCell id="qegKbZxgv4PJoruQwuUI-123" value="&lt;p style=&quot;margin: 0px ; margin-top: 4px ; text-align: center ; text-decoration: underline&quot;&gt;&lt;b&gt;UserDiscount 客户折扣&lt;/b&gt;&lt;/p&gt;&lt;hr&gt;&lt;p style=&quot;margin: 0px ; margin-left: 8px&quot;&gt;user:User&amp;nbsp; 客户&lt;/p&gt;&lt;p style=&quot;margin: 0px ; margin-left: 8px&quot;&gt;productCode:String 商品编码&lt;/p&gt;&lt;p style=&quot;margin: 0px ; margin-left: 8px&quot;&gt;discount:Double&amp;nbsp; 折扣&lt;/p&gt;" style="verticalAlign=top;align=left;overflow=fill;fontSize=12;fontFamily=Helvetica;html=1;strokeColor=#003366;shadow=1;fillColor=#D4E1F5;fontColor=#003366" vertex="1" parent="1">
          <mxGeometry x="930" y="80" width="190" height="90" as="geometry" />
        </mxCell>
        <mxCell id="qegKbZxgv4PJoruQwuUI-124" value="&lt;p style=&quot;margin: 0px ; margin-top: 4px ; text-align: center ; text-decoration: underline&quot;&gt;&lt;b&gt;User 用户&lt;/b&gt;&lt;/p&gt;&lt;p style=&quot;margin: 0px ; margin-left: 8px&quot;&gt;uid:String 用户ID&lt;/p&gt;&lt;p style=&quot;margin: 0px ; margin-left: 8px&quot;&gt;name:String 用户名&lt;/p&gt;" style="verticalAlign=top;align=left;overflow=fill;fontSize=12;fontFamily=Helvetica;html=1;strokeColor=#003366;shadow=1;fillColor=#D4E1F5;fontColor=#003366" vertex="1" parent="1">
          <mxGeometry x="1180" y="85.00000000000023" width="160" height="90" as="geometry" />
        </mxCell>
        <mxCell id="qegKbZxgv4PJoruQwuUI-125" value="&lt;p style=&quot;margin: 0px ; margin-top: 4px ; text-align: center ; text-decoration: underline&quot;&gt;&lt;b&gt;Cart 购物车&lt;/b&gt;&lt;/p&gt;&lt;hr&gt;&lt;p style=&quot;margin: 0px ; margin-left: 8px&quot;&gt;user:User&amp;nbsp; 用户&lt;/p&gt;" style="verticalAlign=top;align=left;overflow=fill;fontSize=12;fontFamily=Helvetica;html=1;strokeColor=#003366;shadow=1;fillColor=#D4E1F5;fontColor=#003366" vertex="1" parent="1">
          <mxGeometry x="170" y="450" width="220" height="120" as="geometry" />
        </mxCell>
        <mxCell id="qegKbZxgv4PJoruQwuUI-126" value="&lt;p style=&quot;margin: 0px ; margin-top: 4px ; text-align: center ; text-decoration: underline&quot;&gt;&lt;b&gt;CartEntry 购物车行&lt;/b&gt;&lt;/p&gt;&lt;hr&gt;&lt;p style=&quot;margin: 0px ; margin-left: 8px&quot;&gt;product:Product 商品&lt;br&gt;&lt;/p&gt;&lt;p style=&quot;margin: 0px ; margin-left: 8px&quot;&gt;quantity:Long 数量&lt;/p&gt;&lt;p style=&quot;margin: 0px ; margin-left: 8px&quot;&gt;basePrice:Doubel 价格&lt;/p&gt;" style="verticalAlign=top;align=left;overflow=fill;fontSize=12;fontFamily=Helvetica;html=1;strokeColor=#003366;shadow=1;fillColor=#D4E1F5;fontColor=#003366" vertex="1" parent="1">
          <mxGeometry x="640" y="450" width="220" height="130" as="geometry" />
        </mxCell>
        <mxCell id="qegKbZxgv4PJoruQwuUI-127" value="&lt;p style=&quot;margin: 0px ; margin-top: 4px ; text-align: center ; text-decoration: underline&quot;&gt;&lt;b&gt;Order 订单&lt;/b&gt;&lt;/p&gt;&lt;hr&gt;&lt;p style=&quot;margin: 0px ; margin-left: 8px&quot;&gt;user:User&amp;nbsp; 用户&lt;/p&gt;" style="verticalAlign=top;align=left;overflow=fill;fontSize=12;fontFamily=Helvetica;html=1;strokeColor=#003366;shadow=1;fillColor=#D4E1F5;fontColor=#003366" vertex="1" parent="1">
          <mxGeometry x="160" y="630" width="220" height="120" as="geometry" />
        </mxCell>
        <mxCell id="qegKbZxgv4PJoruQwuUI-128" value="&lt;p style=&quot;margin: 0px ; margin-top: 4px ; text-align: center ; text-decoration: underline&quot;&gt;&lt;b&gt;OrderEntry 订单行&lt;/b&gt;&lt;/p&gt;&lt;hr&gt;&lt;p style=&quot;margin: 0px ; margin-left: 8px&quot;&gt;product:Product 商品&lt;br&gt;&lt;/p&gt;&lt;p style=&quot;margin: 0px ; margin-left: 8px&quot;&gt;quantity:Long 数量&lt;/p&gt;&lt;p style=&quot;margin: 0px ; margin-left: 8px&quot;&gt;basePrice:Doubel 价格&lt;/p&gt;" style="verticalAlign=top;align=left;overflow=fill;fontSize=12;fontFamily=Helvetica;html=1;strokeColor=#003366;shadow=1;fillColor=#D4E1F5;fontColor=#003366" vertex="1" parent="1">
          <mxGeometry x="651.08" y="625" width="220" height="130" as="geometry" />
        </mxCell>
        <mxCell id="qegKbZxgv4PJoruQwuUI-143" value="" style="endArrow=open;endSize=12;startArrow=diamondThin;startSize=14;startFill=0;edgeStyle=orthogonalEdgeStyle;entryX=1;entryY=0.5;entryDx=0;entryDy=0;exitX=0;exitY=0.5;exitDx=0;exitDy=0;" edge="1" parent="1" source="qegKbZxgv4PJoruQwuUI-126" target="qegKbZxgv4PJoruQwuUI-125">
          <mxGeometry x="569.3599999999999" y="-260" as="geometry">
            <mxPoint x="620" y="350" as="sourcePoint" />
            <mxPoint x="470" y="290" as="targetPoint" />
          </mxGeometry>
        </mxCell>
        <mxCell id="qegKbZxgv4PJoruQwuUI-144" value="0..n" style="resizable=0;align=left;verticalAlign=top;labelBackgroundColor=#ffffff;fontSize=10;strokeColor=#003366;shadow=1;fillColor=#D4E1F5;fontColor=#003366" connectable="0" vertex="1" parent="qegKbZxgv4PJoruQwuUI-143">
          <mxGeometry x="-1" relative="1" as="geometry">
            <mxPoint x="-40" y="-29" as="offset" />
          </mxGeometry>
        </mxCell>
        <mxCell id="qegKbZxgv4PJoruQwuUI-145" value="1" style="resizable=0;align=right;verticalAlign=top;labelBackgroundColor=#ffffff;fontSize=10;strokeColor=#003366;shadow=1;fillColor=#D4E1F5;fontColor=#003366" connectable="0" vertex="1" parent="qegKbZxgv4PJoruQwuUI-143">
          <mxGeometry x="1" relative="1" as="geometry">
            <mxPoint x="20" y="-32" as="offset" />
          </mxGeometry>
        </mxCell>
        <mxCell id="qegKbZxgv4PJoruQwuUI-146" value="" style="endArrow=open;endSize=12;startArrow=diamondThin;startSize=14;startFill=0;edgeStyle=orthogonalEdgeStyle;entryX=1;entryY=0.5;entryDx=0;entryDy=0;" edge="1" parent="1" target="qegKbZxgv4PJoruQwuUI-127">
          <mxGeometry x="579.3599999999999" y="-250" as="geometry">
            <mxPoint x="650" y="690" as="sourcePoint" />
            <mxPoint x="400" y="520" as="targetPoint" />
          </mxGeometry>
        </mxCell>
        <mxCell id="qegKbZxgv4PJoruQwuUI-147" value="0..n" style="resizable=0;align=left;verticalAlign=top;labelBackgroundColor=#ffffff;fontSize=10;strokeColor=#003366;shadow=1;fillColor=#D4E1F5;fontColor=#003366" connectable="0" vertex="1" parent="qegKbZxgv4PJoruQwuUI-146">
          <mxGeometry x="-1" relative="1" as="geometry">
            <mxPoint x="-40" y="-29" as="offset" />
          </mxGeometry>
        </mxCell>
        <mxCell id="qegKbZxgv4PJoruQwuUI-148" value="1" style="resizable=0;align=right;verticalAlign=top;labelBackgroundColor=#ffffff;fontSize=10;strokeColor=#003366;shadow=1;fillColor=#D4E1F5;fontColor=#003366" connectable="0" vertex="1" parent="qegKbZxgv4PJoruQwuUI-146">
          <mxGeometry x="1" relative="1" as="geometry">
            <mxPoint x="20" y="-32" as="offset" />
          </mxGeometry>
        </mxCell>
      </root>
    </mxGraphModel>
  </diagram>
</mxfile>
